<svg width="48" height="48" viewBox="0 0 48 48" fill="none" xmlns="http://www.w3.org/2000/svg">
<circle cx="24" cy="24" r="24" fill="#E7E0DA"/>
<path fill-rule="evenodd" clip-rule="evenodd" d="M28.4255 15.202C28.4895 15.2658 28.5403 15.3417 28.575 15.4252C28.6096 15.5088 28.6275 15.5983 28.6275 15.6887C28.6275 15.7792 28.6096 15.8687 28.575 15.9522C28.5403 16.0357 28.4895 16.1116 28.4255 16.1755L20.6609 23.9387L28.4255 31.702C28.5546 31.8311 28.6271 32.0062 28.6271 32.1887C28.6271 32.3713 28.5546 32.5464 28.4255 32.6755C28.2964 32.8046 28.1213 32.8771 27.9387 32.8771C27.7562 32.8771 27.5811 32.8046 27.452 32.6755L19.202 24.4255C19.138 24.3616 19.0872 24.2857 19.0525 24.2022C19.0178 24.1187 19 24.0292 19 23.9387C19 23.8483 19.0178 23.7588 19.0525 23.6752C19.0872 23.5917 19.138 23.5158 19.202 23.452L27.452 15.202C27.5158 15.138 27.5917 15.0872 27.6752 15.0525C27.7588 15.0178 27.8483 15 27.9387 15C28.0292 15 28.1187 15.0178 28.2022 15.0525C28.2857 15.0872 28.3616 15.138 28.4255 15.202Z" fill="black" fill-opacity="0.75"/>
</svg>
